<?xml version="1.0" encoding="UTF-8" standalone="no"?>
<!DOCTYPE svg PUBLIC "-//W3C//DTD SVG 1.1//EN" "http://www.w3.org/Graphics/SVG/1.1/DTD/svg11.dtd">
<svg version="1.1" xmlns="http://www.w3.org/2000/svg" xmlns:xlink="http://www.w3.org/1999/xlink" preserveAspectRatio="xMidYMid meet" viewBox="0 0 640 640" width="640" height="640"><defs><path d="M154.18 353.97C155.6 354.15 157.03 354.34 158.46 354.55C157 354.34 155.56 354.15 154.11 353.96C154.12 353.96 154.17 353.97 154.18 353.97Z" id="b6BngNo1YV"></path><path d="M303.14 229.81C311.52 212.93 319.89 196.06 328.26 179.19C316.31 173.25 304.35 167.32 292.4 161.39C284.02 178.26 277.72 189.12 271.57 209.75C283.52 215.69 291.19 223.87 303.14 229.81Z" id="a37y7GpZ7C"></path><path d="M239.94 244.38C249.43 227.93 259.76 213.63 276.89 196.49C287.26 204.79 296.88 214.96 309.74 219.79C315.5 228.49 308.45 256.36 296.24 272.84C293.25 277.05 278.3 298.1 251.4 336L215.52 315.81C230.17 272.95 238.32 249.14 239.94 244.38Z" id="eJw4q0tV8"></path><path d="M214.97 59.78C241.89 47.72 273.39 59.56 285.32 86.21C297.26 112.86 285.11 144.24 258.19 156.3C231.26 168.35 199.77 156.52 187.83 129.87C175.9 103.21 188.04 71.84 214.97 59.78Z" id="c924W8DGq"></path><path d="M253.99 145.89C254.42 145.83 254.87 145.86 255.31 146.02C256.78 146.53 257.57 148.13 257.06 149.61C257 149.77 256.93 149.93 256.85 150.07C257.22 150.3 257.54 150.62 257.78 151.02C258.58 152.36 258.15 154.09 256.81 154.89C256.66 154.98 256.51 155.06 256.35 155.11C256.49 155.53 256.53 155.98 256.46 156.44C256.21 157.97 254.76 159.03 253.23 158.79C253.06 158.76 252.89 158.71 252.73 158.66C252.57 159.06 252.31 159.44 251.96 159.74C250.79 160.76 249 160.64 247.98 159.46C247.87 159.34 247.77 159.19 247.68 159.05C247.3 159.25 246.86 159.37 246.4 159.38C244.84 159.41 243.55 158.17 243.53 156.61C243.52 156.43 243.54 156.26 243.56 156.1C243.14 156.01 242.73 155.82 242.37 155.53C241.16 154.54 240.97 152.77 241.95 151.56C242.06 151.42 242.18 151.3 242.3 151.19C242.04 150.85 241.84 150.44 241.75 149.98C241.45 148.46 242.46 146.97 243.99 146.67C244.15 146.64 244.33 146.62 244.49 146.62C244.51 146.18 244.62 145.74 244.84 145.34C245.61 143.97 247.32 143.49 248.69 144.24C248.84 144.32 248.98 144.42 249.11 144.53C249.4 144.2 249.76 143.94 250.2 143.77C251.66 143.22 253.29 143.94 253.85 145.4C253.91 145.56 253.96 145.73 253.99 145.89Z" id="a1UDa94wQ3"></path><path d="M254.1 126.5C254.53 126.43 254.98 126.47 255.43 126.62C256.9 127.13 257.68 128.74 257.18 130.21C257.12 130.38 257.05 130.53 256.96 130.68C257.34 130.91 257.66 131.23 257.9 131.63C258.7 132.96 258.27 134.7 256.93 135.5C256.78 135.59 256.63 135.66 256.48 135.72C256.61 136.13 256.66 136.58 256.58 137.05C256.33 138.58 254.89 139.63 253.35 139.39C253.18 139.36 253.01 139.32 252.85 139.27C252.69 139.67 252.43 140.04 252.08 140.35C250.91 141.37 249.12 141.25 248.1 140.07C247.99 139.94 247.89 139.8 247.8 139.65C247.42 139.86 246.99 139.98 246.51 139.99C244.96 140.02 243.67 138.77 243.64 137.21C243.64 137.04 243.66 136.87 243.68 136.71C243.26 136.62 242.85 136.43 242.48 136.14C241.28 135.16 241.09 133.38 242.07 132.17C242.17 132.03 242.3 131.91 242.43 131.8C242.16 131.46 241.96 131.05 241.87 130.59C241.58 129.06 242.57 127.58 244.11 127.28C244.28 127.25 244.45 127.23 244.62 127.23C244.63 126.8 244.75 126.36 244.97 125.95C245.73 124.59 247.44 124.09 248.81 124.85C248.96 124.93 249.1 125.03 249.23 125.14C249.52 124.81 249.89 124.55 250.32 124.39C251.77 123.82 253.41 124.55 253.97 126C254.03 126.17 254.07 126.33 254.1 126.5Z" id="d21dCoNGox"></path><path d="M259.86 108.1C260.29 108.04 260.74 108.08 261.18 108.23C262.66 108.73 263.43 110.34 262.93 111.82C262.87 111.98 262.8 112.14 262.72 112.28C263.09 112.51 263.41 112.83 263.65 113.23C264.45 114.57 264.02 116.3 262.68 117.1C262.53 117.19 262.38 117.27 262.22 117.32C262.36 117.74 262.4 118.19 262.32 118.65C262.08 120.19 260.64 121.24 259.09 121C258.92 120.97 258.76 120.92 258.6 120.87C258.44 121.28 258.18 121.65 257.83 121.95C256.65 122.98 254.87 122.85 253.85 121.67C253.73 121.55 253.63 121.41 253.54 121.26C253.16 121.47 252.72 121.59 252.26 121.6C250.7 121.63 249.42 120.38 249.39 118.82C249.38 118.65 249.4 118.48 249.43 118.32C249 118.23 248.59 118.03 248.23 117.74C247.01 116.76 246.83 114.98 247.81 113.77C247.92 113.64 248.04 113.51 248.17 113.41C247.9 113.07 247.7 112.66 247.61 112.2C247.31 110.67 248.31 109.18 249.84 108.89C250.01 108.86 250.19 108.84 250.36 108.84C250.37 108.4 250.49 107.96 250.71 107.55C251.46 106.19 253.18 105.7 254.54 106.45C254.7 106.54 254.84 106.64 254.97 106.74C255.25 106.42 255.63 106.15 256.06 105.99C257.52 105.43 259.16 106.15 259.72 107.61C259.78 107.77 259.83 107.94 259.86 108.1Z" id="a1PXWd2MW4"></path><path d="M274.54 89.63C274.72 90.03 274.99 90.39 275.35 90.69C276.56 91.66 278.34 91.48 279.32 90.27C279.43 90.13 279.52 89.99 279.6 89.84C279.99 90.04 280.44 90.14 280.9 90.13C282.46 90.11 283.7 88.82 283.67 87.26C283.67 87.09 283.65 86.92 283.62 86.75C284.04 86.65 284.45 86.45 284.8 86.14C285.97 85.12 286.1 83.34 285.07 82.16C284.96 82.03 284.84 81.91 284.71 81.8C284.96 81.45 285.14 81.04 285.22 80.58C285.46 79.04 284.41 77.59 282.87 77.35C282.7 77.32 282.53 77.31 282.36 77.31C282.33 76.88 282.2 76.44 281.96 76.04C281.16 74.71 279.43 74.28 278.09 75.08C277.94 75.17 277.8 75.27 277.67 75.38C277.37 75.07 277 74.82 276.56 74.67C275.08 74.16 273.47 74.95 272.96 76.42C272.91 76.59 272.87 76.75 272.84 76.92C272.41 76.87 271.96 76.92 271.53 77.09C270.07 77.65 269.34 79.28 269.9 80.74C269.96 80.9 270.04 81.06 270.12 81.2C269.76 81.44 269.45 81.77 269.23 82.18C268.47 83.54 268.96 85.26 270.33 86.01C270.48 86.1 270.64 86.17 270.79 86.22C270.67 86.64 270.65 87.09 270.73 87.55C271.04 89.08 272.52 90.07 274.05 89.77C274.21 89.74 274.38 89.69 274.54 89.63Z" id="bSG4rbnrQ"></path><path d="M261.99 104.26C262.16 104.65 262.43 105.02 262.79 105.32C264.01 106.3 265.78 106.1 266.76 104.9C266.87 104.76 266.97 104.62 267.05 104.47C267.44 104.66 267.88 104.77 268.34 104.76C269.9 104.73 271.14 103.44 271.12 101.89C271.11 101.71 271.1 101.54 271.06 101.38C271.48 101.27 271.89 101.07 272.24 100.77C273.41 99.74 273.54 97.96 272.52 96.79C272.4 96.66 272.28 96.54 272.15 96.43C272.41 96.08 272.59 95.66 272.66 95.21C272.9 93.66 271.85 92.22 270.31 91.97C270.14 91.95 269.97 91.93 269.8 91.94C269.77 91.51 269.64 91.07 269.4 90.68C268.6 89.33 266.86 88.9 265.53 89.71C265.38 89.8 265.24 89.9 265.11 90.01C264.81 89.7 264.43 89.45 264 89.3C262.52 88.79 260.92 89.57 260.41 91.05C260.35 91.21 260.31 91.38 260.29 91.54C259.85 91.5 259.4 91.55 258.97 91.72C257.51 92.28 256.79 93.91 257.35 95.37C257.4 95.53 257.48 95.68 257.57 95.83C257.21 96.07 256.9 96.4 256.67 96.81C255.92 98.17 256.41 99.88 257.77 100.64C257.92 100.72 258.08 100.79 258.24 100.85C258.12 101.26 258.09 101.72 258.18 102.18C258.48 103.7 259.97 104.7 261.49 104.4C261.67 104.37 261.83 104.32 261.99 104.26Z" id="a5rmxcFQe"></path><path d="M292.75 75.42C327.8 59.72 368.53 74.5 383.72 108.43C398.91 142.36 382.82 182.58 347.77 198.28C312.72 213.97 271.99 199.19 256.8 165.27C241.6 131.34 257.7 91.11 292.75 75.42Z" id="f55S79nx7"></path><path d="M391.13 140.13C392 143.71 391.29 146 390.09 146.81C386.53 149.21 380.48 143.39 389.36 131.74C391.1 129.85 392.85 136.2 391.13 140.13Z" id="iUj2dixFZ"></path><path d="M305.66 254.2C303.47 260.8 300.31 267.33 296.24 272.84C293.48 276.84 279.72 296.85 254.95 332.87L241.23 328.29L215.49 320.41L239.94 244.38C274.13 239.5 296.04 242.77 305.66 254.2Z" id="b1qUQO4Vn"></path><path d="M307.61 203.69C285.78 200.22 266.3 186.49 256.8 165.28C241.61 131.35 257.7 91.13 292.76 75.43C311.2 67.18 331.21 67.36 348.25 74.33C329.57 80.11 303.54 154.99 307.61 203.69Z" id="a12qF09FVR"></path><path d="M297.18 139.57C302.77 135.33 312.66 138.98 319.28 147.7C325.89 156.43 326.73 166.94 321.14 171.17C315.56 175.4 305.67 171.76 299.05 163.04C292.43 154.31 291.6 143.8 297.18 139.57Z" id="f3YGdkdmzJ"></path><path d="M348.9 73.98C312.35 81.42 297.37 156.11 371.22 226.72C314.93 158.28 327.87 88.83 348.9 73.98Z" id="dSeuQ86p7"></path><path d="M223.69 313.59C160.5 331.21 116.16 329.33 67.63 300.53C77.31 210.87 146.57 21.77 252 58.36C203.92 136.93 196.6 218.65 223.69 313.59Z" id="c4kNvjxVK8"></path><path d="M251.43 610.98C267.37 610.88 280.34 617.29 280.39 625.29C280.44 633.3 267.55 639.87 251.61 639.98C235.67 640.08 222.7 633.67 222.65 625.66C222.6 617.66 235.48 611.08 251.43 610.98Z" id="djL6DVKL0"></path><path d="M368.89 363.18C367.83 364.15 359.29 371.93 358.23 372.9C319.69 341.88 276.81 285.78 262.98 256.1C246.46 220.66 277.2 189.38 290.63 229.88C303.94 270.02 332.62 325.04 368.89 363.18Z" id="d1MonUpyBy"></path><path d="M381.11 363.52C376.64 356.17 367.71 354.37 364.19 357.19C357.33 362.67 357.81 374.67 365.27 383.98C372.72 393.3 384.31 396.41 391.17 390.92C398.03 385.44 397.55 373.45 390.09 364.13C386.47 359.6 383.21 359.99 381.11 363.52Z" id="a7SW6TsQL"></path><path d="M291.84 461.48C294.8 495.8 295.06 582.51 309.98 608.17C324.9 633.81 301.98 638.62 281.43 629.24C262.1 620.42 249.14 617.15 236.25 620.34C217.82 624.89 208.73 620.82 188.98 611.84C170.6 603.48 157.87 598.6 130.41 595.84C108.88 593.67 98.89 587.1 90.72 578.61C78.94 566.34 70.73 565.67 50.37 561.83C30.01 557.98 11.26 542.31 37.63 528.71C64 515.11 109.39 441.71 130.33 414.36C151.28 387 172.9 344.58 194.9 326.15C206.63 316.33 212.81 311.72 215.99 307.91C218.98 308.07 233.93 308.88 260.85 310.34C280.43 398.49 290.76 448.87 291.84 461.48Z" id="bCyRaTupB"></path><path d="M90.73 578.6C79.63 567.06 71.71 565.79 53.81 562.47C80.83 538.9 145.28 455.67 165.5 415.63C155.95 465.35 112.25 553.48 94.5 582.24C93.18 581.07 91.94 579.86 90.73 578.6Z" id="b1iGnTAxu5"></path><path d="M236.26 620.34C235.35 620.56 234.46 620.77 233.59 620.96C234.38 585.76 244.94 490.38 263.29 444.17C258.81 488.74 268.36 593.41 278.46 627.91C260.75 620.1 248.48 617.32 236.26 620.34Z" id="adL2q9DNI"></path><path d="M140.49 597.03C167.3 551.03 206.46 454.43 214.69 428.87C207.87 454.9 188.89 557.72 186.81 610.86C171.91 604.16 160.35 599.81 140.49 597.03Z" id="d9koHjhMz"></path><path d="M374.48 20.87C397.72 43.09 405.17 34.09 437.34 31.29C469.79 28.46 510.79 42.03 524.93 91.81C474.55 55.32 369.12 94.43 374.48 20.87Z" id="b1jcrZ9ZWQ"></path><path d="M390.73 0C409.96 25.78 418.8 18.14 450.98 20.73C483.45 23.35 521.63 43.55 527.28 94.99C483.68 50.62 373.21 71.64 390.73 0Z" id="a220DYvFsL"></path><path d="M500.94 426.68L499.52 382.41L497.96 335.68L554.72 332.42L548.18 488.72L504.55 496.24L500.94 426.68Z" id="a6bchTS3V"></path><path d="M499.74 367.63L499.52 382.41L499.52 382.41L499.03 367.65L499.74 367.63Z" id="fehm9tyUp"></path><path d="M504.39 483.02L548.18 488.93C546.34 564.74 545.32 606.86 545.12 615.29C534.85 615.49 524.57 615.71 514.3 615.92C512.98 598.2 509.68 553.9 504.39 483.02Z" id="e2JlEKHGJ"></path><path d="M510.32 603.07C527.44 599.52 542.76 603.62 544.54 612.22C546.32 620.81 533.89 630.66 516.77 634.21C499.65 637.75 484.33 633.66 482.55 625.06C480.77 616.46 493.2 606.62 510.32 603.07Z" id="bP3UoZq3"></path><path d="M455.54 189.13C455.54 189.13 455.54 189.13 455.54 189.13C452.85 177.77 451.36 171.45 451.06 170.19C451.06 170.19 451.06 170.19 451.06 170.19C472.55 165.11 484.5 162.28 486.89 161.72C486.89 161.72 486.89 161.72 486.89 161.72C489.57 173.08 491.07 179.4 491.36 180.66C491.36 180.66 491.36 180.66 491.36 180.66C469.87 185.74 457.92 188.57 455.54 189.13Z" id="a3ZQK5tn0g"></path><path d="M560.07 315.73L566.76 331.67L485.11 359.87L479.42 343.58L560.07 315.73Z" id="a1EnKBfy4Q"></path><path d="M490.88 309.97C489.76 307.85 484.15 297.27 474.06 278.23L461.26 200.26L451.3 176.62L467.45 174.71C492.55 241.5 500.36 286.59 490.88 309.97Z" id="fgUTVf1jP"></path><path d="M452.98 172.22C455.16 174.78 460.77 191.73 460.54 195.09C460.37 197.53 453.27 190.49 450.92 188.72C449.96 187.38 449.08 184.72 449.05 183.06C449.88 180.24 451.39 170.36 452.98 172.22Z" id="h34SQx0PQ"></path><path d="M450.1 181.53C450.63 181.45 451.11 181.83 451.19 182.36C451.28 183.04 452 188.44 452.09 189.12C452.16 189.65 451.78 190.14 451.25 190.21C451.05 190.23 449.39 190.45 449.18 190.48C448.65 190.55 448.16 190.18 448.09 189.65C448 188.97 447.28 183.57 447.19 182.89C447.12 182.36 447.5 181.87 448.03 181.8C448.44 181.75 449.89 181.55 450.1 181.53Z" id="bfFVVWVFs"></path><path d="M492.34 167.72L468.07 182.61L464.22 295.78L483.01 354.11L564.54 326.36L492.34 167.72Z" id="a46HaVzdzd"></path><path d="M388.79 353.35C389.98 354.38 399.57 362.66 400.76 363.7C442.11 328.57 487.48 265.82 501.78 232.89C518.85 193.56 484.25 160.18 470.71 204.96C457.28 249.35 427.44 310.49 388.79 353.35Z" id="d3Ce8j5wZu"></path><path d="M374 359.41C366.56 363.74 364.58 372.62 367.33 376.2C372.68 383.16 384.68 382.92 394.14 375.66C403.61 368.4 406.94 356.86 401.6 349.9C396.25 342.93 384.25 343.17 374.78 350.44C370.18 353.97 370.52 357.24 374 359.41Z" id="b4eOfBhIZr"></path><path d="M467.2 25.27C509.25 27.4 541.68 62.12 539.62 102.83C537.57 143.53 501.81 174.81 459.76 172.69C417.7 170.57 385.28 135.85 387.33 95.14C389.39 54.43 425.14 23.15 467.2 25.27Z" id="f67AjDnbf"></path><path d="M502.93 162.25C523.87 150.02 538.33 128.26 539.62 102.8C541.67 62.1 509.24 27.38 467.18 25.26C445.05 24.14 424.66 32.27 410.01 46.16C426.51 98.14 519.85 122.52 502.93 162.25Z" id="aDQMVfGbe"></path><path d="M488.14 92.55C495.53 94.66 498.85 105.73 495.55 117.27C492.26 128.82 483.6 136.47 476.21 134.36C468.81 132.25 465.5 121.18 468.79 109.63C472.09 98.09 480.75 90.44 488.14 92.55Z" id="bjztyFCZn"></path><path d="M445.04 90.59C464.53 107.68 513.8 35.79 483.19 27.22C452.58 18.66 415.86 15.33 396.02 62.35C412.27 68.09 427.31 75.04 445.04 90.59Z" id="bmOzfjhPe"></path><path d="M533.22 342.74C534.47 337.73 544.49 297.58 545.75 292.56C545.74 292.56 598.12 362.68 615.34 396.97C589.9 397.34 549.62 365.43 533.22 342.74Z" id="a2Kw6faKNN"></path><path d="M545.74 292.56C545.74 292.56 590.78 352.1 610.48 387.95C588.41 389.17 551.45 354.42 535.15 334.99C537.27 326.51 544.68 296.8 545.74 292.56Z" id="e2d83kOIyz"></path><path d="M378.99 108.73C379.05 114.52 367.49 118.64 362.65 117.41C368.6 123.84 383.51 115.91 378.99 108.73Z" id="a3fLprXIFC"></path><path d="M411.12 97.83C409.87 103.49 397.67 104.88 393.24 102.59C397.57 110.21 413.89 105.85 411.12 97.83Z" id="a5Cw3BTF8C"></path><path d="M396.77 139.03C397.4 142.66 398.96 144.47 400.39 144.73C404.61 145.51 407.83 137.76 395.04 130.63C392.69 129.59 393.61 136.11 396.77 139.03Z" id="d4fOUsP8Av"></path></defs><g><g><g><use xlink:href="#b6BngNo1YV" opacity="1" fill="#000000" fill-opacity="1"></use><g><use xlink:href="#b6BngNo1YV" opacity="1" fill-opacity="0" stroke="#000000" stroke-width="1" stroke-opacity="0"></use></g></g><g><use xlink:href="#a37y7GpZ7C" opacity="1" fill="#e7b791" fill-opacity="1"></use><g><use xlink:href="#a37y7GpZ7C" opacity="1" fill-opacity="0" stroke="#000000" stroke-width="1" stroke-opacity="0"></use></g></g><g><use xlink:href="#eJw4q0tV8" opacity="1" fill="#ffd8b8" fill-opacity="1"></use><g><use xlink:href="#eJw4q0tV8" opacity="1" fill-opacity="0" stroke="#000000" stroke-width="1" stroke-opacity="0"></use></g></g><g><use xlink:href="#c924W8DGq" opacity="1" fill="#91613a" fill-opacity="1"></use><g><use xlink:href="#c924W8DGq" opacity="1" fill-opacity="0" stroke="#000000" stroke-width="1" stroke-opacity="0"></use></g></g><g><use xlink:href="#a1UDa94wQ3" opacity="1" fill="#ffffff" fill-opacity="1"></use><g><use xlink:href="#a1UDa94wQ3" opacity="1" fill-opacity="0" stroke="#000000" stroke-width="1" stroke-opacity="0"></use></g></g><g><use xlink:href="#d21dCoNGox" opacity="1" fill="#ffffff" fill-opacity="1"></use><g><use xlink:href="#d21dCoNGox" opacity="1" fill-opacity="0" stroke="#000000" stroke-width="1" stroke-opacity="0"></use></g></g><g><use xlink:href="#a1PXWd2MW4" opacity="1" fill="#ffffff" fill-opacity="1"></use><g><use xlink:href="#a1PXWd2MW4" opacity="1" fill-opacity="0" stroke="#000000" stroke-width="1" stroke-opacity="0"></use></g></g><g><use xlink:href="#bSG4rbnrQ" opacity="1" fill="#ffffff" fill-opacity="1"></use><g><use xlink:href="#bSG4rbnrQ" opacity="1" fill-opacity="0" stroke="#000000" stroke-width="1" stroke-opacity="0"></use></g></g><g><use xlink:href="#a5rmxcFQe" opacity="1" fill="#ffffff" fill-opacity="1"></use><g><use xlink:href="#a5rmxcFQe" opacity="1" fill-opacity="0" stroke="#000000" stroke-width="1" stroke-opacity="0"></use></g></g><g><use xlink:href="#f55S79nx7" opacity="1" fill="#ffd8b8" fill-opacity="1"></use><g><use xlink:href="#f55S79nx7" opacity="1" fill-opacity="0" stroke="#000000" stroke-width="1" stroke-opacity="0"></use></g></g><g><use xlink:href="#iUj2dixFZ" opacity="1" fill="#e7b791" fill-opacity="1"></use><g><use xlink:href="#iUj2dixFZ" opacity="1" fill-opacity="0" stroke="#000000" stroke-width="1" stroke-opacity="0"></use></g></g><g><use xlink:href="#b1qUQO4Vn" opacity="1" fill="#fcf7f9" fill-opacity="1"></use><g><use xlink:href="#b1qUQO4Vn" opacity="1" fill-opacity="0" stroke="#000000" stroke-width="1" stroke-opacity="0"></use></g></g><g><use xlink:href="#a12qF09FVR" opacity="1" fill="#91613a" fill-opacity="1"></use><g><use xlink:href="#a12qF09FVR" opacity="1" fill-opacity="0" stroke="#000000" stroke-width="1" stroke-opacity="0"></use></g></g><g><use xlink:href="#f3YGdkdmzJ" opacity="1" fill="#ffd8b8" fill-opacity="1"></use><g><use xlink:href="#f3YGdkdmzJ" opacity="1" fill-opacity="0" stroke="#000000" stroke-width="1" stroke-opacity="0"></use></g></g><g><use xlink:href="#dSeuQ86p7" opacity="1" fill="#91613a" fill-opacity="1"></use><g><use xlink:href="#dSeuQ86p7" opacity="1" fill-opacity="0" stroke="#000000" stroke-width="1" stroke-opacity="0"></use></g></g><g><use xlink:href="#c4kNvjxVK8" opacity="1" fill="#f9edf2" fill-opacity="1"></use><g><use xlink:href="#c4kNvjxVK8" opacity="1" fill-opacity="0" stroke="#000000" stroke-width="1" stroke-opacity="0"></use></g></g><g><use xlink:href="#djL6DVKL0" opacity="1" fill="#ffffff" fill-opacity="1"></use><g><use xlink:href="#djL6DVKL0" opacity="1" fill-opacity="0" stroke="#000000" stroke-width="1" stroke-opacity="0"></use></g></g><g><use xlink:href="#d1MonUpyBy" opacity="1" fill="#ffd8b8" fill-opacity="1"></use><g><use xlink:href="#d1MonUpyBy" opacity="1" fill-opacity="0" stroke="#000000" stroke-width="1" stroke-opacity="0"></use></g></g><g><use xlink:href="#a7SW6TsQL" opacity="1" fill="#ffd8b8" fill-opacity="1"></use><g><use xlink:href="#a7SW6TsQL" opacity="1" fill-opacity="0" stroke="#000000" stroke-width="1" stroke-opacity="0"></use></g></g><g><use xlink:href="#bCyRaTupB" opacity="1" fill="#fcf7f9" fill-opacity="1"></use><g><use xlink:href="#bCyRaTupB" opacity="1" fill-opacity="0" stroke="#000000" stroke-width="1" stroke-opacity="0"></use></g></g><g><use xlink:href="#b1iGnTAxu5" opacity="1" fill="#ffe0e9" fill-opacity="1"></use><g><use xlink:href="#b1iGnTAxu5" opacity="1" fill-opacity="0" stroke="#000000" stroke-width="1" stroke-opacity="0"></use></g></g><g><use xlink:href="#adL2q9DNI" opacity="1" fill="#ffe0e9" fill-opacity="1"></use><g><use xlink:href="#adL2q9DNI" opacity="1" fill-opacity="0" stroke="#000000" stroke-width="1" stroke-opacity="0"></use></g></g><g><use xlink:href="#d9koHjhMz" opacity="1" fill="#ffe0e9" fill-opacity="1"></use><g><use xlink:href="#d9koHjhMz" opacity="1" fill-opacity="0" stroke="#000000" stroke-width="1" stroke-opacity="0"></use></g></g><g><use xlink:href="#b1jcrZ9ZWQ" opacity="1" fill="#91613a" fill-opacity="1"></use><g><use xlink:href="#b1jcrZ9ZWQ" opacity="1" fill-opacity="0" stroke="#000000" stroke-width="1" stroke-opacity="0"></use></g></g><g><use xlink:href="#a220DYvFsL" opacity="1" fill="#91613a" fill-opacity="1"></use><g><use xlink:href="#a220DYvFsL" opacity="1" fill-opacity="0" stroke="#000000" stroke-width="1" stroke-opacity="0"></use></g></g><g><use xlink:href="#a6bchTS3V" opacity="1" fill="#323232" fill-opacity="1"></use><g><use xlink:href="#a6bchTS3V" opacity="1" fill-opacity="0" stroke="#000000" stroke-width="1" stroke-opacity="0"></use></g></g><g><use xlink:href="#fehm9tyUp" opacity="1" fill="#323232" fill-opacity="1"></use><g><use xlink:href="#fehm9tyUp" opacity="1" fill-opacity="0" stroke="#000000" stroke-width="1" stroke-opacity="0"></use></g></g><g><use xlink:href="#e2JlEKHGJ" opacity="1" fill="#323232" fill-opacity="1"></use><g><use xlink:href="#e2JlEKHGJ" opacity="1" fill-opacity="0" stroke="#000000" stroke-width="1" stroke-opacity="0"></use></g></g><g><use xlink:href="#bP3UoZq3" opacity="1" fill="#1a1a1a" fill-opacity="1"></use><g><use xlink:href="#bP3UoZq3" opacity="1" fill-opacity="0" stroke="#000000" stroke-width="1" stroke-opacity="0"></use></g></g><g><use xlink:href="#a3ZQK5tn0g" opacity="1" fill="#ffffff" fill-opacity="1"></use><g><use xlink:href="#a3ZQK5tn0g" opacity="1" fill-opacity="0" stroke="#000000" stroke-width="1" stroke-opacity="0"></use></g></g><g><use xlink:href="#a1EnKBfy4Q" opacity="1" fill="#1a1a1a" fill-opacity="1"></use><g><use xlink:href="#a1EnKBfy4Q" opacity="1" fill-opacity="0" stroke="#000000" stroke-width="1" stroke-opacity="0"></use></g></g><g><use xlink:href="#fgUTVf1jP" opacity="1" fill="#ffffff" fill-opacity="1"></use><g><use xlink:href="#fgUTVf1jP" opacity="1" fill-opacity="0" stroke="#000000" stroke-width="1" stroke-opacity="0"></use></g></g><g><use xlink:href="#h34SQx0PQ" opacity="1" fill="#212e36" fill-opacity="1"></use><g><use xlink:href="#h34SQx0PQ" opacity="1" fill-opacity="0" stroke="#000000" stroke-width="1" stroke-opacity="0"></use></g></g><g><use xlink:href="#bfFVVWVFs" opacity="1" fill="#405059" fill-opacity="1"></use><g><use xlink:href="#bfFVVWVFs" opacity="1" fill-opacity="0" stroke="#000000" stroke-width="1" stroke-opacity="0"></use></g></g><g><use xlink:href="#a46HaVzdzd" opacity="1" fill="#323232" fill-opacity="1"></use><g><use xlink:href="#a46HaVzdzd" opacity="1" fill-opacity="0" stroke="#000000" stroke-width="1" stroke-opacity="0"></use></g></g><g><use xlink:href="#d3Ce8j5wZu" opacity="1" fill="#1a1a1a" fill-opacity="1"></use><g><use xlink:href="#d3Ce8j5wZu" opacity="1" fill-opacity="0" stroke="#000000" stroke-width="1" stroke-opacity="0"></use></g></g><g><use xlink:href="#b4eOfBhIZr" opacity="1" fill="#ffd8b8" fill-opacity="1"></use><g><use xlink:href="#b4eOfBhIZr" opacity="1" fill-opacity="0" stroke="#000000" stroke-width="1" stroke-opacity="0"></use></g></g><g><use xlink:href="#f67AjDnbf" opacity="1" fill="#ffd8b8" fill-opacity="1"></use><g><use xlink:href="#f67AjDnbf" opacity="1" fill-opacity="0" stroke="#000000" stroke-width="1" stroke-opacity="0"></use></g></g><g><use xlink:href="#aDQMVfGbe" opacity="1" fill="#91613a" fill-opacity="1"></use><g><use xlink:href="#aDQMVfGbe" opacity="1" fill-opacity="0" stroke="#000000" stroke-width="1" stroke-opacity="0"></use></g></g><g><use xlink:href="#bjztyFCZn" opacity="1" fill="#ffd8b8" fill-opacity="1"></use><g><use xlink:href="#bjztyFCZn" opacity="1" fill-opacity="0" stroke="#000000" stroke-width="1" stroke-opacity="0"></use></g></g><g><use xlink:href="#bmOzfjhPe" opacity="1" fill="#91613a" fill-opacity="1"></use><g><use xlink:href="#bmOzfjhPe" opacity="1" fill-opacity="0" stroke="#000000" stroke-width="1" stroke-opacity="0"></use></g></g><g><use xlink:href="#a2Kw6faKNN" opacity="1" fill="#1a1a1a" fill-opacity="1"></use><g><use xlink:href="#a2Kw6faKNN" opacity="1" fill-opacity="0" stroke="#000000" stroke-width="1" stroke-opacity="0"></use></g></g><g><use xlink:href="#e2d83kOIyz" opacity="1" fill="#323232" fill-opacity="1"></use><g><use xlink:href="#e2d83kOIyz" opacity="1" fill-opacity="0" stroke="#000000" stroke-width="1" stroke-opacity="0"></use></g></g><g><use xlink:href="#a3fLprXIFC" opacity="1" fill="#666666" fill-opacity="1"></use><g><use xlink:href="#a3fLprXIFC" opacity="1" fill-opacity="0" stroke="#000000" stroke-width="1" stroke-opacity="0"></use></g></g><g><use xlink:href="#a5Cw3BTF8C" opacity="1" fill="#666666" fill-opacity="1"></use><g><use xlink:href="#a5Cw3BTF8C" opacity="1" fill-opacity="0" stroke="#000000" stroke-width="1" stroke-opacity="0"></use></g></g><g><use xlink:href="#d4fOUsP8Av" opacity="1" fill="#e7b791" fill-opacity="1"></use><g><use xlink:href="#d4fOUsP8Av" opacity="1" fill-opacity="0" stroke="#000000" stroke-width="1" stroke-opacity="0"></use></g></g></g></g></svg>