<svg width="185.94400000000002" height="185.94400000000002" xmlns="http://www.w3.org/2000/svg">

 <g>
  <title>background</title>
  <rect fill="none" id="canvas_background" height="402" width="582" y="-1" x="-1"/>
 </g>
 <g>
  <title>Layer 1</title>
  <g id="svg_1">
   <g id="svg_2" opacity="0.08">
    <path id="svg_3" d="m44.773,102.838l0.021,0.004c0.414,0.053 0.829,0.107 1.243,0.168c-0.422,-0.061 -0.843,-0.117 -1.264,-0.172z"/>
   </g>
   <path id="svg_5" fill-rule="evenodd" clip-rule="evenodd" fill="#E7B791" d="m78.9,60.941c3.473,1.724 5.7,4.101 9.173,5.826c2.434,-4.902 4.866,-9.804 7.299,-14.705c-3.473,-1.725 -6.947,-3.448 -10.419,-5.173c-2.434,4.903 -4.265,8.057 -6.053,14.052z"/>
   <path id="svg_6" fill-rule="evenodd" clip-rule="evenodd" fill="#FFD8B8" d="m62.615,91.755l7.097,-20.754c2.757,-4.779 5.758,-8.934 10.735,-13.914c3.012,2.412 5.807,5.366 9.543,6.771c1.673,2.526 -0.375,10.624 -3.922,15.412l-13.027,18.351l-10.426,-5.866z"/>
   <ellipse id="svg_7" fill-rule="evenodd" clip-rule="evenodd" fill="#91613A" ry="15.517" rx="15.362" cy="31.391" cx="68.736" transform="matrix(-0.4087,-0.9127,0.9127,-0.4087,68.1754,106.9541) "/>
   <path id="svg_8" fill-rule="evenodd" clip-rule="evenodd" fill="#FFFFFF" d="m73.751,42.244c0.019,0.046 0.032,0.096 0.042,0.143c0.125,-0.018 0.256,-0.008 0.383,0.037c0.428,0.148 0.656,0.613 0.509,1.042c-0.017,0.048 -0.037,0.094 -0.062,0.136c0.108,0.065 0.202,0.158 0.271,0.274c0.232,0.389 0.108,0.893 -0.281,1.126c-0.044,0.025 -0.088,0.048 -0.135,0.064c0.04,0.12 0.053,0.252 0.032,0.385c-0.071,0.446 -0.492,0.752 -0.938,0.682c-0.05,-0.008 -0.099,-0.021 -0.144,-0.036c-0.047,0.117 -0.122,0.226 -0.224,0.314c-0.342,0.296 -0.86,0.261 -1.157,-0.081c-0.033,-0.037 -0.062,-0.079 -0.086,-0.121c-0.112,0.06 -0.239,0.095 -0.374,0.097c-0.452,0.008 -0.826,-0.353 -0.834,-0.805c-0.001,-0.051 0.004,-0.101 0.011,-0.149c-0.124,-0.025 -0.243,-0.08 -0.348,-0.166c-0.351,-0.285 -0.406,-0.801 -0.122,-1.153c0.032,-0.04 0.067,-0.075 0.104,-0.107c-0.078,-0.099 -0.135,-0.217 -0.16,-0.35c-0.087,-0.444 0.204,-0.876 0.649,-0.962c0.048,-0.01 0.099,-0.015 0.146,-0.015c0.005,-0.128 0.037,-0.255 0.103,-0.373c0.221,-0.396 0.719,-0.538 1.116,-0.319c0.044,0.024 0.085,0.052 0.122,0.084c0.084,-0.095 0.191,-0.171 0.318,-0.219c0.424,-0.162 0.897,0.049 1.059,0.472z"/>
   <path id="svg_9" fill-rule="evenodd" clip-rule="evenodd" fill="#FFFFFF" d="m73.786,36.609c0.018,0.048 0.031,0.095 0.04,0.144c0.125,-0.019 0.256,-0.008 0.384,0.036c0.429,0.148 0.656,0.614 0.509,1.042c-0.017,0.049 -0.038,0.094 -0.062,0.136c0.108,0.067 0.202,0.159 0.271,0.275c0.234,0.388 0.108,0.892 -0.28,1.125c-0.044,0.026 -0.088,0.048 -0.133,0.065c0.04,0.12 0.053,0.251 0.03,0.385c-0.071,0.446 -0.491,0.752 -0.938,0.682c-0.05,-0.009 -0.098,-0.02 -0.145,-0.037c-0.046,0.117 -0.121,0.226 -0.223,0.314c-0.342,0.297 -0.86,0.262 -1.157,-0.08c-0.033,-0.039 -0.062,-0.079 -0.087,-0.121c-0.11,0.061 -0.237,0.095 -0.374,0.097c-0.453,0.009 -0.827,-0.353 -0.834,-0.806c0,-0.051 0.004,-0.1 0.011,-0.148c-0.122,-0.026 -0.243,-0.08 -0.348,-0.164c-0.351,-0.286 -0.406,-0.802 -0.121,-1.155c0.031,-0.039 0.067,-0.074 0.104,-0.106c-0.078,-0.099 -0.135,-0.219 -0.16,-0.351c-0.086,-0.444 0.203,-0.876 0.649,-0.962c0.049,-0.01 0.099,-0.015 0.148,-0.015c0.003,-0.126 0.038,-0.253 0.102,-0.372c0.22,-0.396 0.718,-0.539 1.115,-0.319c0.045,0.024 0.086,0.052 0.123,0.083c0.085,-0.094 0.192,-0.17 0.317,-0.218c0.422,-0.164 0.897,0.047 1.059,0.47z"/>
   <path id="svg_10" fill-rule="evenodd" clip-rule="evenodd" fill="#FFFFFF" d="m75.457,31.264c0.018,0.048 0.032,0.097 0.041,0.144c0.124,-0.018 0.255,-0.007 0.384,0.037c0.429,0.146 0.655,0.614 0.508,1.042c-0.017,0.048 -0.036,0.093 -0.061,0.136c0.107,0.066 0.201,0.158 0.271,0.275c0.232,0.389 0.107,0.892 -0.281,1.125c-0.044,0.025 -0.088,0.047 -0.135,0.064c0.04,0.121 0.052,0.252 0.03,0.386c-0.071,0.446 -0.49,0.752 -0.938,0.681c-0.05,-0.008 -0.098,-0.021 -0.144,-0.036c-0.047,0.118 -0.121,0.227 -0.224,0.314c-0.342,0.297 -0.86,0.261 -1.157,-0.081c-0.033,-0.037 -0.063,-0.078 -0.088,-0.12c-0.111,0.06 -0.238,0.095 -0.372,0.097c-0.453,0.009 -0.827,-0.353 -0.835,-0.806c-0.001,-0.051 0.003,-0.1 0.012,-0.147c-0.124,-0.026 -0.243,-0.082 -0.349,-0.166c-0.353,-0.286 -0.406,-0.802 -0.122,-1.154c0.032,-0.039 0.068,-0.075 0.104,-0.106c-0.078,-0.099 -0.136,-0.218 -0.161,-0.351c-0.087,-0.445 0.204,-0.876 0.648,-0.962c0.05,-0.009 0.1,-0.015 0.15,-0.015c0.002,-0.127 0.037,-0.255 0.101,-0.373c0.22,-0.395 0.719,-0.539 1.115,-0.319c0.044,0.025 0.085,0.053 0.123,0.084c0.083,-0.095 0.191,-0.171 0.317,-0.219c0.426,-0.164 0.9,0.048 1.063,0.47z"/>
   <path id="svg_11" fill-rule="evenodd" clip-rule="evenodd" fill="#FFFFFF" d="m79.62,26.082c0.049,-0.009 0.098,-0.023 0.144,-0.04c0.051,0.114 0.129,0.221 0.234,0.306c0.352,0.284 0.869,0.23 1.154,-0.122c0.032,-0.039 0.059,-0.081 0.083,-0.123c0.113,0.057 0.242,0.087 0.376,0.084c0.454,-0.008 0.815,-0.381 0.806,-0.834c-0.002,-0.051 -0.006,-0.1 -0.016,-0.148c0.123,-0.029 0.241,-0.089 0.342,-0.178c0.341,-0.297 0.378,-0.815 0.081,-1.156c-0.033,-0.039 -0.068,-0.073 -0.107,-0.104c0.075,-0.102 0.127,-0.223 0.149,-0.356c0.07,-0.448 -0.235,-0.869 -0.683,-0.939c-0.05,-0.008 -0.099,-0.011 -0.148,-0.01c-0.008,-0.126 -0.046,-0.252 -0.115,-0.369c-0.234,-0.388 -0.737,-0.513 -1.125,-0.279c-0.044,0.026 -0.084,0.055 -0.121,0.088c-0.087,-0.092 -0.197,-0.164 -0.325,-0.208c-0.428,-0.147 -0.895,0.081 -1.044,0.508c-0.015,0.049 -0.027,0.097 -0.034,0.146c-0.127,-0.014 -0.257,0.001 -0.383,0.049c-0.422,0.162 -0.634,0.637 -0.472,1.061c0.018,0.047 0.041,0.092 0.064,0.133c-0.104,0.071 -0.195,0.166 -0.26,0.285c-0.22,0.395 -0.077,0.895 0.319,1.114c0.044,0.025 0.091,0.045 0.136,0.06c-0.036,0.123 -0.043,0.254 -0.017,0.386c0.088,0.444 0.518,0.733 0.962,0.646z"/>
   <path id="svg_12" fill-rule="evenodd" clip-rule="evenodd" fill="#FFFFFF" d="m75.973,30.333c0.05,-0.01 0.098,-0.023 0.143,-0.043c0.05,0.116 0.13,0.221 0.235,0.308c0.352,0.285 0.868,0.229 1.153,-0.122c0.032,-0.039 0.059,-0.08 0.083,-0.123c0.113,0.056 0.242,0.086 0.376,0.084c0.453,-0.009 0.814,-0.383 0.806,-0.835c-0.001,-0.05 -0.006,-0.1 -0.017,-0.148c0.123,-0.03 0.242,-0.089 0.343,-0.177c0.341,-0.298 0.377,-0.816 0.081,-1.156c-0.034,-0.039 -0.07,-0.073 -0.107,-0.104c0.075,-0.103 0.127,-0.223 0.148,-0.356c0.07,-0.448 -0.234,-0.869 -0.682,-0.939c-0.051,-0.008 -0.1,-0.012 -0.148,-0.011c-0.009,-0.125 -0.046,-0.252 -0.116,-0.366c-0.233,-0.39 -0.738,-0.516 -1.126,-0.282c-0.044,0.026 -0.084,0.056 -0.12,0.089c-0.087,-0.092 -0.198,-0.164 -0.325,-0.207c-0.428,-0.148 -0.895,0.079 -1.042,0.507c-0.017,0.048 -0.028,0.097 -0.036,0.145c-0.126,-0.014 -0.257,0.002 -0.383,0.051c-0.422,0.163 -0.633,0.636 -0.471,1.06c0.017,0.047 0.04,0.092 0.065,0.134c-0.105,0.069 -0.195,0.166 -0.26,0.284c-0.22,0.395 -0.077,0.894 0.319,1.114c0.044,0.024 0.09,0.044 0.136,0.06c-0.036,0.121 -0.043,0.253 -0.018,0.386c0.088,0.443 0.519,0.732 0.963,0.647z"/>
   <ellipse id="svg_13" fill-rule="evenodd" clip-rule="evenodd" fill="#FFD8B8" ry="20.202" rx="19.555" cy="39.763" cx="93.048" transform="matrix(-0.4087,-0.9127,0.9127,-0.4087,94.7834,140.9357) "/>
   <path id="svg_14" fill-rule="evenodd" clip-rule="evenodd" fill="#E7B791" d="m113.122,38.276c0.507,-0.549 1.016,1.294 0.515,2.438c0.253,1.04 0.047,1.704 -0.303,1.94c-1.033,0.697 -2.791,-0.995 -0.212,-4.378z"/>
   <path id="svg_15" fill-rule="evenodd" clip-rule="evenodd" fill="#FCF7F9" d="m69.711,71.001c1.236,0.725 14.902,-2.127 19.094,2.855c-0.635,1.915 -1.553,3.814 -2.738,5.414l-11.994,17.44l-3.986,-1.33l-7.479,-2.288l7.103,-22.091z"/>
   <path id="svg_16" fill-rule="evenodd" clip-rule="evenodd" fill="#91613A" d="m101.18,21.595c-5.429,1.679 -12.992,23.434 -11.808,37.586c-6.343,-1.011 -12.003,-4.998 -14.762,-11.161c-4.415,-9.857 0.262,-21.544 10.446,-26.104c5.359,-2.398 11.173,-2.346 16.124,-0.321z"/>
   <ellipse id="svg_17" fill-rule="evenodd" clip-rule="evenodd" fill="#FFD8B8" ry="3.687" rx="5.761" cy="45.141" cx="89.817" transform="matrix(-0.6041,-0.7969,0.7969,-0.6041,108.1083,143.9854) "/>
   <path id="svg_18" fill-rule="evenodd" clip-rule="evenodd" fill="#91613A" d="m107.854,65.87c-16.355,-19.885 -12.596,-40.061 -6.485,-44.375c-10.621,2.162 -14.973,23.862 6.485,44.375z"/>
   <path id="svg_19" fill-rule="evenodd" clip-rule="evenodd" fill="#F9EDF2" d="m73.214,16.955c-13.968,22.827 -16.094,46.57 -8.225,74.156c-18.359,5.118 -31.24,4.571 -45.342,-3.797c2.813,-26.049 22.936,-80.988 53.567,-70.359z"/>
   <ellipse id="svg_20" fill-rule="evenodd" clip-rule="evenodd" fill="#FFFFFF" ry="8.387" rx="4.212" cy="181.731" cx="73.074" transform="matrix(-0.0064,-1,1,-0.0064,-108.1882,255.9622) "/>
   <g id="svg_21">
    <path id="svg_22" fill-rule="evenodd" clip-rule="evenodd" fill="#FFD8B8" d="m84.438,66.789c3.868,11.663 12.199,27.646 22.739,38.729l-3.099,2.824c-11.198,-9.014 -23.656,-25.313 -27.674,-33.935c-4.798,-10.298 4.131,-19.384 8.034,-7.618z"/>
    <path id="svg_23" fill-rule="evenodd" clip-rule="evenodd" fill="#FFD8B8" d="m113.336,105.793c-1.052,-1.316 -2,-1.201 -2.61,-0.178c-1.3,-2.133 -3.893,-2.658 -4.916,-1.838c-1.992,1.592 -1.852,5.078 0.313,7.785c2.165,2.707 5.534,3.609 7.526,2.016c1.993,-1.594 1.853,-5.078 -0.313,-7.785z"/>
   </g>
   <g id="svg_24">
    <path id="svg_25" fill-rule="evenodd" clip-rule="evenodd" fill="#FCF7F9" d="m75.786,90.165c7.215,5.004 8.532,38.417 9.004,43.911c0.859,9.973 0.936,35.166 5.271,42.619c4.335,7.451 -2.326,8.848 -8.296,6.123c-5.617,-2.563 -9.38,-3.512 -13.125,-2.586c-5.356,1.322 -7.997,0.139 -13.735,-2.469c-5.341,-2.43 -9.039,-3.848 -17.016,-4.65c-6.257,-0.631 -9.157,-2.537 -11.531,-5.006c-3.423,-3.563 -5.808,-3.758 -11.724,-4.875c-5.916,-1.117 -11.364,-5.672 -3.702,-9.623c7.662,-3.951 20.848,-25.275 26.934,-33.223c6.087,-7.947 12.368,-20.273 18.759,-25.627c3.407,-2.854 5.203,-4.193 6.128,-5.299l13.033,0.705z"/>
    <path id="svg_26" fill-rule="evenodd" clip-rule="evenodd" fill="#FFE0E9" d="m27.455,169.162c-0.382,-0.34 -0.744,-0.691 -1.095,-1.057c-3.224,-3.353 -5.527,-3.723 -10.727,-4.686c7.85,-6.848 26.576,-31.031 32.449,-42.662c-2.774,14.444 -15.47,40.05 -20.627,48.405z"/>
    <path id="svg_27" fill-rule="evenodd" clip-rule="evenodd" fill="#FFE0E9" d="m80.903,182.43c-5.146,-2.268 -8.712,-3.076 -12.261,-2.199c-0.265,0.066 -0.522,0.125 -0.775,0.18c0.228,-10.227 3.296,-37.938 8.627,-51.363c-1.301,12.95 1.474,43.36 4.409,53.382z"/>
    <path id="svg_28" fill-rule="evenodd" clip-rule="evenodd" fill="#FFE0E9" d="m54.274,177.477c-4.327,-1.947 -7.688,-3.211 -13.457,-4.016c7.79,-13.365 19.166,-41.432 21.558,-48.857c-1.982,7.562 -7.497,37.435 -8.101,52.873z"/>
   </g>
   <path id="svg_29" fill-rule="evenodd" clip-rule="evenodd" fill="#91613A" d="m152.511,26.675c-14.636,-10.602 -45.267,0.76 -43.712,-20.611c6.754,6.455 8.917,3.839 18.263,3.026c9.428,-0.82 21.341,3.121 25.449,17.585z"/>
   <path id="svg_30" fill-rule="evenodd" clip-rule="evenodd" fill="#91613A" d="m153.195,27.599c-12.669,-12.891 -44.763,-6.785 -39.673,-27.599c5.586,7.489 8.154,5.269 17.505,6.024c9.432,0.76 20.524,6.629 22.168,21.575z"/>
   <g id="svg_31">
    <polygon id="svg_32" fill-rule="evenodd" clip-rule="evenodd" fill="#323232" points="146.59,144.176 145.54,123.967 145.13,111.103      144.674,97.527 161.165,96.58 159.266,141.992    "/>
    <polygon id="svg_33" fill-rule="evenodd" clip-rule="evenodd" fill="#323232" points="144.986,106.816 145.192,106.81 145.13,111.105      145.13,111.103    "/>
   </g>
   <path id="svg_34" fill-rule="evenodd" clip-rule="evenodd" fill="#323232" d="m149.422,178.947l-2.877,-38.611l12.722,1.717l-0.891,36.711c-2.984,0.06 -5.969,0.123 -8.954,0.183z"/>
   <ellipse id="svg_35" fill-rule="evenodd" clip-rule="evenodd" fill="#1A1A1A" ry="9.197" rx="4.619" cy="179.733" cx="149.198" transform="matrix(-0.2029,-0.9792,0.9792,-0.2029,3.481,362.3003) "/>
   <rect id="svg_36" fill-rule="evenodd" clip-rule="evenodd" fill="#FFFFFF" height="5.655" width="10.696" transform="matrix(-0.9732,0.2301,-0.2301,-0.9732,281.8711,69.0667) " y="48.14" x="131.561"/>
   <polygon id="svg_37" fill-rule="evenodd" clip-rule="evenodd" fill="#1A1A1A" points="139.288,99.824 162.72,91.73 164.663,96.363     140.941,104.557   "/>
   <path id="svg_38" fill-rule="evenodd" clip-rule="evenodd" fill="#FFFFFF" d="m135.812,50.759c8.508,17.407 10.938,29.108 6.807,39.299l-4.888,-9.223l-3.717,-22.653l-2.896,-6.867l4.694,-0.556z"/>
   <g id="svg_39">
    <path id="svg_40" fill-rule="evenodd" clip-rule="evenodd" fill="#212E36" d="m130.464,53.185c0.243,-0.818 0.681,-3.69 1.143,-3.149c0.634,0.744 2.262,5.669 2.196,6.645c-0.048,0.709 -2.111,-1.336 -2.795,-1.85c-0.278,-0.391 -0.533,-1.164 -0.544,-1.646z"/>
    <path id="svg_41" fill-rule="evenodd" clip-rule="evenodd" fill="#405059" d="m130.168,52.82l0.601,-0.08c0.154,-0.021 0.296,0.089 0.317,0.243l0.261,1.962c0.021,0.154 -0.088,0.297 -0.242,0.317l-0.601,0.08c-0.154,0.021 -0.296,-0.089 -0.317,-0.242l-0.261,-1.963c-0.021,-0.154 0.088,-0.296 0.242,-0.317z"/>
   </g>
   <polygon id="svg_42" fill-rule="evenodd" clip-rule="evenodd" fill="#323232" points="164.02,94.82 143.042,48.729 135.992,53.056     134.872,85.935 140.333,102.881   "/>
   <path id="svg_43" fill-rule="evenodd" clip-rule="evenodd" fill="#1A1A1A" d="m136.757,59.548c-3.902,12.897 -12.57,30.661 -23.801,43.112l3.48,3.008c12.013,-10.207 25.195,-28.437 29.348,-38.004c4.961,-11.427 -5.091,-21.126 -9.027,-8.116z"/>
   <path id="svg_44" fill-rule="evenodd" clip-rule="evenodd" fill="#FFD8B8" d="m108.887,101.816c-1.337,1.025 -1.239,1.975 -0.228,2.605c-2.159,1.258 -2.735,3.84 -1.937,4.879c1.554,2.023 5.041,1.953 7.79,-0.158c2.75,-2.109 3.719,-5.461 2.166,-7.484s-5.041,-1.953 -7.791,0.158z"/>
   <ellipse id="svg_45" fill-rule="evenodd" clip-rule="evenodd" fill="#FFD8B8" ry="22.152" rx="21.443" cy="28.753" cx="134.652" transform="matrix(0.0504,-0.9987,0.9987,0.0504,99.1548,161.7862) "/>
   <path id="svg_46" fill-rule="evenodd" clip-rule="evenodd" fill="#91613A" d="m119.124,13.411c4.793,15.103 31.911,22.187 26.996,33.728c6.083,-3.552 10.285,-9.875 10.658,-17.271c0.596,-11.827 -8.826,-21.914 -21.045,-22.53c-6.431,-0.325 -12.353,2.038 -16.609,6.073z"/>
   <ellipse id="svg_47" fill-rule="evenodd" clip-rule="evenodd" fill="#FFD8B8" ry="4.043" rx="6.317" cy="32.964" cx="140.089" transform="matrix(0.2745,-0.9616,0.9616,0.2745,69.9362,158.6234) "/>
   <path id="svg_48" fill-rule="evenodd" clip-rule="evenodd" fill="#91613A" d="m115.058,18.115c4.721,1.668 9.091,3.688 14.243,8.204c5.663,4.965 19.977,-15.92 11.084,-18.41c-8.894,-2.487 -19.562,-3.454 -25.327,10.206z"/>
   <path id="svg_50" fill-rule="evenodd" clip-rule="evenodd" fill="#1A1A1A" d="m178.78,115.336c-7.393,0.107 -19.094,-9.166 -23.861,-15.756l3.64,-14.581c-0.001,0 15.218,20.374 20.221,30.337z"/>
   <path id="svg_51" fill-rule="evenodd" clip-rule="evenodd" fill="#323232" d="m155.481,97.328l3.077,-12.329c0,0 13.085,17.3 18.81,27.716c-6.414,0.353 -17.151,-9.742 -21.887,-15.387z"/>
   <path id="svg_52" fill-rule="evenodd" clip-rule="evenodd" fill="#666666" d="m105.363,34.112c1.728,1.869 6.06,-0.436 4.747,-2.523c0.018,1.683 -3.342,2.881 -4.747,2.523z"/>
   <path id="svg_53" fill-rule="evenodd" clip-rule="evenodd" fill="#666666" d="m114.249,29.806c1.26,2.213 6.001,0.948 5.196,-1.383c-0.364,1.644 -3.908,2.049 -5.196,1.383z"/>
   <path id="svg_54" fill-rule="evenodd" clip-rule="evenodd" fill="#E7B791" d="m114.774,37.952c-0.684,-0.301 -0.415,1.592 0.501,2.44c0.183,1.056 0.637,1.582 1.053,1.658c1.225,0.227 2.162,-2.026 -1.554,-4.098z"/>
  </g>
  <g id="svg_55"/>
  <g id="svg_56"/>
  <g id="svg_57"/>
  <g id="svg_58"/>
  <g id="svg_59"/>
  <g id="svg_60"/>
  <g id="svg_61"/>
  <g id="svg_62"/>
  <g id="svg_63"/>
  <g id="svg_64"/>
  <g id="svg_65"/>
  <g id="svg_66"/>
  <g id="svg_67"/>
  <g id="svg_68"/>
  <g id="svg_69"/>
 </g>
</svg>